<svg width="16" height="16" viewBox="0 0 16 16" fill="none" xmlns="http://www.w3.org/2000/svg">
<mask id="mask0_6_4473" style="mask-type:alpha" maskUnits="userSpaceOnUse" x="0" y="0" width="16" height="17">
<path fill-rule="evenodd" clip-rule="evenodd" d="M7.33333 5.33377C7.33333 4.96577 7.632 4.6671 8 4.6671C8.368 4.6671 8.66666 4.96577 8.66666 5.33377C8.66666 5.70177 8.368 6.00044 8 6.00044C7.632 6.00044 7.33333 5.70177 7.33333 5.33377ZM7.33333 7.33377C7.33333 6.96577 7.632 6.6671 8 6.6671C8.368 6.6671 8.66666 6.96577 8.66666 7.33377V10.6671C8.66666 11.0351 8.368 11.3338 8 11.3338C7.632 11.3338 7.33333 11.0351 7.33333 10.6671V7.33377ZM7.99999 13.3338C5.05933 13.3338 2.66666 10.9411 2.66666 8.00044C2.66666 5.05977 5.05933 2.6671 7.99999 2.6671C10.9407 2.6671 13.3333 5.05977 13.3333 8.00044C13.3333 10.9411 10.9407 13.3338 7.99999 13.3338ZM8 1.33377C4.318 1.33377 1.33333 4.31844 1.33333 8.00044C1.33333 11.6824 4.318 14.6671 8 14.6671C11.6813 14.6671 14.6667 11.6824 14.6667 8.00044C14.6667 4.31844 11.6813 1.33377 8 1.33377Z" fill="#071435"/>
</mask>
<g mask="url(#mask0_6_4473)">
<rect width="16" height="16" transform="translate(0 0.000427246)" fill="#77829E"/>
</g>
</svg>
