<svg width="32" height="32" viewBox="0 0 32 32" fill="none" xmlns="http://www.w3.org/2000/svg">
<mask id="mask0_2102_573" style="mask-type:alpha" maskUnits="userSpaceOnUse" x="0" y="0" width="32" height="32">
<path fill-rule="evenodd" clip-rule="evenodd" d="M7.3528 21.3334L8.92614 19.7574C9.43014 19.2534 9.70747 18.584 9.70747 17.872V11.636C9.70747 9.82669 10.4941 8.09736 11.8675 6.89469C13.2515 5.68136 15.0141 5.14802 16.8501 5.38936C19.9528 5.80136 22.2928 8.60669 22.2928 11.916V17.872C22.2928 18.584 22.5701 19.2534 23.0728 19.756L24.6475 21.3334H7.3528ZM18.6661 24.4547C18.6661 25.6534 17.4448 26.6667 15.9995 26.6667C14.5541 26.6667 13.3328 25.6534 13.3328 24.4547V24H18.6661V24.4547ZM27.3608 20.2774L24.9595 17.872V11.916C24.9595 7.27469 21.6235 3.33202 17.1995 2.74669C14.6368 2.40536 12.0501 3.18802 10.1101 4.88935C8.15814 6.59869 7.0408 9.05735 7.0408 11.636L7.03947 17.872L4.63814 20.2774C4.0128 20.904 3.82747 21.836 4.16614 22.6534C4.50614 23.472 5.2968 24 6.18214 24H10.6661V24.4547C10.6661 27.1454 13.0581 29.3334 15.9995 29.3334C18.9408 29.3334 21.3328 27.1454 21.3328 24.4547V24H25.8168C26.7021 24 27.4915 23.472 27.8301 22.6547C28.1701 21.836 27.9861 20.9027 27.3608 20.2774Z" fill="#071435"/>
</mask>
<g mask="url(#mask0_2102_573)">
<rect width="32" height="32" fill="#1551E5"/>
</g>
</svg>
