<svg width="16" height="16" viewBox="0 0 16 16" fill="none" xmlns="http://www.w3.org/2000/svg">
<mask id="mask0_6_4470" style="mask-type:alpha" maskUnits="userSpaceOnUse" x="0" y="0" width="16" height="17">
<path fill-rule="evenodd" clip-rule="evenodd" d="M13.3333 9.7335L11.4607 8.00016L13.3333 6.2675V9.7335ZM10 10.6668C10 11.0348 9.70134 11.3335 9.33334 11.3335H3.33334C2.96534 11.3335 2.66668 11.0348 2.66668 10.6668V5.3335C2.66668 4.96616 2.96534 4.66683 3.33334 4.66683H9.33334C9.70134 4.66683 10 4.96616 10 5.3335V10.6668ZM14.008 4.76416C13.5907 4.58216 13.1067 4.6615 12.774 4.96816L11.3333 6.3015V5.3335C11.3333 4.23083 10.436 3.3335 9.33334 3.3335H3.33334C2.23068 3.3335 1.33334 4.23083 1.33334 5.3335V10.6668C1.33334 11.7702 2.23068 12.6668 3.33334 12.6668H9.33334C10.436 12.6668 11.3333 11.7702 11.3333 10.6668V9.6995L12.774 11.0322C12.9873 11.2302 13.264 11.3335 13.546 11.3335C13.702 11.3335 13.8587 11.3022 14.008 11.2368C14.414 11.0595 14.6667 10.6802 14.6667 10.2475V5.7535C14.6667 5.32083 14.414 4.9415 14.008 4.76416Z" fill="#071435"/>
</mask>
<g mask="url(#mask0_6_4470)">
<rect width="16" height="16" transform="translate(0 0.000427246)" fill="#77829E"/>
</g>
</svg>
