<svg width="16" height="16" viewBox="0 0 16 16" fill="none" xmlns="http://www.w3.org/2000/svg">
<mask id="mask0_6_4467" style="mask-type:alpha" maskUnits="userSpaceOnUse" x="0" y="0" width="16" height="17">
<path fill-rule="evenodd" clip-rule="evenodd" d="M11.6295 13.3338H4.3702C4.1662 13.3338 4.0002 13.1844 4.0002 13.0004V3.00044C4.0002 2.81644 4.1662 2.6671 4.3702 2.6671H7.33354V5.43377C7.33354 6.48177 8.14487 7.33377 9.14287 7.33377H12.0002V13.0004C12.0002 13.1844 11.8335 13.3338 11.6295 13.3338ZM11.7662 6.00044H9.14287C8.8802 6.00044 8.66687 5.74644 8.66687 5.43377V2.6671H8.74154L11.7662 6.00044ZM13.1602 5.55244L9.53087 1.55244C9.40487 1.4131 9.22554 1.33377 9.03687 1.33377H4.3702C3.43087 1.33377 2.66687 2.08177 2.66687 3.00044V13.0004C2.66687 13.9191 3.43087 14.6671 4.3702 14.6671H11.6295C12.5689 14.6671 13.3335 13.9191 13.3335 13.0004V6.00044C13.3335 5.83444 13.2715 5.6751 13.1602 5.55244Z" fill="#071435"/>
</mask>
<g mask="url(#mask0_6_4467)">
<rect width="16" height="16" transform="translate(0 0.000427246)" fill="#77829E"/>
</g>
</svg>
