<svg width="32" height="32" viewBox="0 0 32 32" fill="none" xmlns="http://www.w3.org/2000/svg">
<mask id="mask0_4200_583" style="mask-type:alpha" maskUnits="userSpaceOnUse" x="0" y="0" width="32" height="32">
<path fill-rule="evenodd" clip-rule="evenodd" d="M9.62627 8.00004C8.47427 8.00004 7.39427 8.44537 6.58627 9.25471C4.90894 10.9347 4.90894 13.6694 6.5876 15.352L15.9996 24.78L25.4129 15.352C27.0916 13.6694 27.0916 10.9347 25.4129 9.25471C23.7969 7.63471 20.9489 7.63737 19.3329 9.25471L16.9436 11.648C16.4423 12.1507 15.5569 12.1507 15.0556 11.648L12.6663 9.25337C11.8583 8.44537 10.7796 8.00004 9.62627 8.00004ZM15.9996 28C15.6463 28 15.3063 27.86 15.0569 27.608L4.6996 17.2347C1.98494 14.5147 1.98494 10.0894 4.6996 7.36937C6.0116 6.05737 7.76094 5.33337 9.62627 5.33337C11.4916 5.33337 13.2423 6.05737 14.5529 7.36937L15.9996 8.81871L17.4463 7.37071C18.7583 6.05737 20.5076 5.33337 22.3743 5.33337C24.2383 5.33337 25.9889 6.05737 27.2996 7.36937C30.0156 10.0894 30.0156 14.5147 27.3009 17.2347L16.9436 27.6094C16.6929 27.86 16.3543 28 15.9996 28Z" fill="#071435"/>
</mask>
<g mask="url(#mask0_4200_583)">
<rect width="32" height="32" fill="#77829E"/>
</g>
</svg>
