<svg width="16" height="16" viewBox="0 0 16 16" fill="none" xmlns="http://www.w3.org/2000/svg">
<mask id="mask0_4598_625" style="mask-type:alpha" maskUnits="userSpaceOnUse" x="0" y="0" width="16" height="16">
<path fill-rule="evenodd" clip-rule="evenodd" d="M4.66681 7.33287C4.66681 6.96487 4.96548 6.6662 5.33348 6.6662C5.70148 6.6662 6.00014 6.96487 6.00014 7.33287C6.00014 7.70087 5.70148 7.99953 5.33348 7.99953C4.96548 7.99953 4.66681 7.70087 4.66681 7.33287ZM8.00014 6.6662C7.63214 6.6662 7.33348 6.96487 7.33348 7.33287C7.33348 7.70087 7.63214 7.99953 8.00014 7.99953C8.36814 7.99953 8.66681 7.70087 8.66681 7.33287C8.66681 6.96487 8.36814 6.6662 8.00014 6.6662ZM10.6668 6.6662C10.2988 6.6662 10.0001 6.96487 10.0001 7.33287C10.0001 7.70087 10.2988 7.99953 10.6668 7.99953C11.0348 7.99953 11.3335 7.70087 11.3335 7.33287C11.3335 6.96487 11.0348 6.6662 10.6668 6.6662ZM13.2657 8.19613C12.9277 10.3655 11.1791 12.1648 9.01308 12.5708C7.96708 12.7681 6.90174 12.6555 5.93508 12.2461C5.66108 12.1301 5.37774 12.0715 5.09974 12.0715C4.97308 12.0715 4.84774 12.0835 4.72441 12.1081L2.84974 12.4828L3.22508 10.6048C3.30374 10.2148 3.25574 9.79747 3.08708 9.39814C2.67774 8.43147 2.56574 7.3668 2.76241 6.32013C3.16841 4.15413 4.96708 2.40547 7.13708 2.06747C8.86374 1.7988 10.5524 2.3428 11.7711 3.56147C12.9904 4.7808 13.5351 6.47013 13.2657 8.19613ZM12.7144 2.6188C11.1911 1.09613 9.08441 0.416801 6.93174 0.749468C4.21374 1.17347 1.96041 3.3628 1.45174 6.07413C1.20641 7.37947 1.34774 8.7088 1.85908 9.91747C1.92374 10.0715 1.94374 10.2148 1.91841 10.3435L1.34641 13.2021C1.30241 13.4208 1.37108 13.6468 1.52908 13.8041C1.65508 13.9308 1.82508 13.9995 2.00041 13.9995C2.04374 13.9995 2.08708 13.9955 2.13108 13.9868L4.98641 13.4155C5.15041 13.3841 5.30908 13.4301 5.41508 13.4741C6.62508 13.9855 7.95441 14.1261 9.25841 13.8815C11.9704 13.3728 14.1597 11.1195 14.5837 8.40147C14.9184 6.25013 14.2377 4.14213 12.7144 2.6188Z" fill="#071435"/>
</mask>
<g mask="url(#mask0_4598_625)">
<rect width="16" height="16" fill="#1551E5"/>
</g>
</svg>
