<svg width="16" height="16" viewBox="0 0 16 16" fill="none" xmlns="http://www.w3.org/2000/svg">
<mask id="mask0_4598_639" style="mask-type:alpha" maskUnits="userSpaceOnUse" x="0" y="0" width="16" height="16">
<path fill-rule="evenodd" clip-rule="evenodd" d="M13.1598 2.84044C12.9284 2.60844 12.5531 2.60844 12.3218 2.84044L2.84044 12.3218C2.72444 12.4378 2.66644 12.5891 2.66644 12.7411C2.66644 12.8924 2.72444 13.0444 2.84044 13.1598C3.07178 13.3911 3.44644 13.3911 3.67844 13.1598L13.1598 3.67844C13.3911 3.44644 13.3911 3.07178 13.1598 2.84044ZM10.6666 12.6666C10.1153 12.6666 9.66664 12.218 9.66664 11.6666C9.66664 11.1153 10.1153 10.6666 10.6666 10.6666C11.218 10.6666 11.6666 11.1153 11.6666 11.6666C11.6666 12.218 11.218 12.6666 10.6666 12.6666ZM10.6666 9.33331C9.37998 9.33331 8.33331 10.38 8.33331 11.6666C8.33331 12.9533 9.37998 14 10.6666 14C11.9533 14 13 12.9533 13 11.6666C13 10.38 11.9533 9.33331 10.6666 9.33331ZM5.33331 3.99998C5.88464 3.99998 6.33331 4.44864 6.33331 4.99998C6.33331 5.55131 5.88464 5.99998 5.33331 5.99998C4.78198 5.99998 4.33331 5.55131 4.33331 4.99998C4.33331 4.44864 4.78198 3.99998 5.33331 3.99998ZM5.33331 7.33331C6.61998 7.33331 7.66664 6.28664 7.66664 4.99998C7.66664 3.71331 6.61998 2.66664 5.33331 2.66664C4.04664 2.66664 2.99998 3.71331 2.99998 4.99998C2.99998 6.28664 4.04664 7.33331 5.33331 7.33331Z" fill="#071435"/>
</mask>
<g mask="url(#mask0_4598_639)">
<rect width="16" height="16" fill="#1551E5"/>
</g>
</svg>
